HIERARCHY
ROOT Hips
{
	OFFSET 0.000000 0.000000 0.000000
	CHANNELS 6 Xposition Yposition Zposition Zrotation Yrotation Xrotation 
	JOINT LHipJoint
	{
		OFFSET 0.000000 0.000000 0.000000
		CHANNELS 3 Zrotation Yrotation Xrotation
		JOINT LeftUpLeg
		{
			OFFSET 1.363060 -1.794630 0.839290
			CHANNELS 3 Zrotation Yrotation Xrotation
			JOINT LeftLeg
			{
				OFFSET 2.448110 -6.726130 0.000000
				CHANNELS 3 Zrotation Yrotation Xrotation
				JOINT LeftFoot
				{
					OFFSET 2.562200 -7.039590 0.000000
					CHANNELS 3 Zrotation Yrotation Xrotation
					JOINT LeftToeBase
					{
						OFFSET 0.157640 -0.433110 2.322550
						CHANNELS 3 Zrotation Yrotation Xrotation
						End Site
						{
							OFFSET 0.000000 0.000000 0.000000
						}
					}
				}
			}
		}
	}
	JOINT RHipJoint
	{
		OFFSET 0.000000 0.000000 0.000000
		CHANNELS 3 Zrotation Yrotation Xrotation
		JOINT RightUpLeg
		{
			OFFSET -1.305520 -1.794630 0.839290
			CHANNELS 3 Zrotation Yrotation Xrotation
			JOINT RightLeg
			{
				OFFSET -2.542530 -6.985550 0.000000
				CHANNELS 3 Zrotation Yrotation Xrotation
				JOINT RightFoot
				{
					OFFSET -2.568260 -7.056230 0.000000
					CHANNELS 3 Zrotation Yrotation Xrotation
					JOINT RightToeBase
					{
						OFFSET -0.164730 -0.452590 2.363150
						CHANNELS 3 Zrotation Yrotation Xrotation
						End Site
						{
							OFFSET 0.000000 0.000000 0.000000
						}
					}
				}
			}
		}
	}
	JOINT LowerBack
	{
		OFFSET 0.000000 0.000000 0.000000
		CHANNELS 3 Zrotation Yrotation Xrotation
		JOINT Spine
		{
			OFFSET 0.028270 2.035590 -0.193380
			CHANNELS 3 Zrotation Yrotation Xrotation
			JOINT Spine1
			{
				OFFSET 0.056720 2.048850 -0.042750
				CHANNELS 3 Zrotation Yrotation Xrotation
				JOINT Neck
				{
					OFFSET 0.000000 0.000000 0.000000
					CHANNELS 3 Zrotation Yrotation Xrotation
					JOINT Neck1
					{
						OFFSET -0.054170 1.746240 0.172020
						CHANNELS 3 Zrotation Yrotation Xrotation
						JOINT Head
						{
							OFFSET 0.104070 1.761360 -0.123970
							CHANNELS 3 Zrotation Yrotation Xrotation
							End Site
							{
								OFFSET 0.000000 0.000000 0.000000
							}
						}
					}
				}
				JOINT LeftShoulder
				{
					OFFSET 0.000000 0.000000 0.000000
					CHANNELS 3 Zrotation Yrotation Xrotation
					JOINT LeftArm
					{
						OFFSET 3.362410 1.200890 -0.311210
						CHANNELS 3 Zrotation Yrotation Xrotation
						JOINT LeftForeArm
						{
							OFFSET 4.983000 -0.000000 -0.000000
							CHANNELS 3 Zrotation Yrotation Xrotation
							JOINT LeftHand
							{
								OFFSET 3.483560 -0.000000 -0.000000
								CHANNELS 3 Zrotation Yrotation Xrotation
								JOINT LeftFingerBase
								{
									OFFSET 0.000000 0.000000 0.000000
									CHANNELS 3 Zrotation Yrotation Xrotation
									JOINT LeftHandIndex1
									{
										OFFSET 0.715260 -0.000000 -0.000000
										CHANNELS 3 Zrotation Yrotation Xrotation
										End Site
										{
											OFFSET 0.000000 0.000000 0.000000
										}
									}
								}
								JOINT LThumb
								{
									OFFSET 0.000000 0.000000 0.000000
									CHANNELS 3 Zrotation Yrotation Xrotation
									End Site
									{
										OFFSET 0.000000 0.000000 0.000000
									}
								}
							}
						}
					}
				}
				JOINT RightShoulder
				{
					OFFSET 0.000000 0.000000 0.000000
					CHANNELS 3 Zrotation Yrotation Xrotation
					JOINT RightArm
					{
						OFFSET -3.136600 1.374050 -0.404650
						CHANNELS 3 Zrotation Yrotation Xrotation
						JOINT RightForeArm
						{
							OFFSET -5.241900 -0.000000 -0.000000
							CHANNELS 3 Zrotation Yrotation Xrotation
							JOINT RightHand
							{
								OFFSET -3.444170 -0.000000 -0.000000
								CHANNELS 3 Zrotation Yrotation Xrotation
								JOINT RightFingerBase
								{
									OFFSET 0.000000 0.000000 0.000000
									CHANNELS 3 Zrotation Yrotation Xrotation
									JOINT RightHandIndex1
									{
										OFFSET -0.622530 -0.000000 -0.000000
										CHANNELS 3 Zrotation Yrotation Xrotation
										End Site
										{
											OFFSET 0.000000 0.000000 0.000000
										}
									}
								}
								JOINT RThumb
								{
									OFFSET 0.000000 0.000000 0.000000
									CHANNELS 3 Zrotation Yrotation Xrotation
									End Site
									{
										OFFSET 0.000000 0.000000 0.000000
									}
								}
							}
						}
					}
				}
			}
		}
	}
}
MOTION
Frames: 4
Frame Time: 0.008333
0.221868 17.101179 -27.519455 -0.852522 8.506008 19.899421 -2.289850 -1.567898 -0.168767 -13.084930 -2.207748 -5.062516 2.038527 11.649285 34.485366 1.906548 -12.377968 23.790785 0.000074 0.056572 0.155388 -0.758274 1.884409 -3.965104 15.387935 9.991415 -47.842478 -1.184997 -12.164491 30.746559 -0.322263 1.013552 2.425843 -1.574642 7.901560 -22.423727 4.507506 -2.127123 -8.709497 2.229836 -3.904102 -10.056103 -1.048438 -1.785276 -0.314776 -1.261053 -1.921705 -8.529231 2.265932 -2.542087 11.508264 -0.708501 -1.069749 3.749239 13.000865 7.197999 -0.694395 -95.049179 -5.052558 34.178186 34.554196 -50.197800 -15.446191 0.072757 -0.393821 -9.171256 26.131243 -19.230475 -8.973359 -7.125000 0.000000 0.000000 -1.334522 9.235760 1.103938 -13.088845 -6.493267 1.393447 101.740696 -22.090670 -64.903291 -3.418704 9.463748 0.089365 -1.391285 0.679373 65.935739 -16.897982 -33.851314 8.719946 7.125000 0.000000 0.000000 20.411122 -62.899729 -9.068113
0.225098 17.107419 -27.388413 -1.022913 8.364375 19.864514 -2.242661 -1.613051 -0.261063 -12.930612 -2.268784 -5.773084 2.389984 12.116533 36.047321 1.980251 -12.082139 25.321068 0.000023 0.019717 0.054164 -0.776111 1.866058 -3.921083 15.567015 10.318143 -47.705647 -1.326306 -12.368546 31.428764 -0.340418 1.329533 2.161138 -1.359126 7.363279 -20.803782 4.780170 -2.037168 -8.637627 2.258274 -3.829081 -10.049945 -1.100775 -1.742389 -0.327523 -1.248608 -1.871096 -8.614867 2.217917 -2.465649 11.448751 -0.728103 -1.035446 3.743318 13.003017 7.206536 -0.677724 -95.138188 -4.429489 34.132561 35.080169 -50.534785 -15.807261 0.087800 -0.380566 -9.569555 26.308750 -18.892564 -8.888878 -7.125000 0.000000 0.000000 -1.195167 9.561281 0.980815 -13.093790 -6.489689 1.381283 101.699162 -21.810634 -64.016564 -3.432548 9.561994 0.083861 -1.415331 0.653218 65.100383 -16.966103 -34.033823 8.797638 7.125000 0.000000 0.000000 20.491367 -63.073388 -9.188939
0.228801 17.116146 -27.255950 -1.117352 8.301302 19.771144 -2.196832 -1.649496 -0.350005 -12.842034 -2.436580 -6.359523 2.750873 12.567092 37.580343 2.053266 -11.816050 26.717260 0.000249 -0.051795 -0.142305 -0.788107 1.850715 -3.878558 15.702025 10.534755 -47.461204 -1.461579 -12.555448 32.067902 -0.352818 1.569773 1.881587 -1.176278 6.870647 -19.337900 4.972401 -1.992979 -8.512594 2.283684 -3.793265 -10.039055 -1.137534 -1.720766 -0.345424 -1.224385 -1.820924 -8.713674 2.163613 -2.389093 11.410399 -0.754387 -1.000342 3.751232 13.007130 7.215713 -0.660987 -95.251450 -3.842738 34.074859 35.522587 -50.815060 -16.112433 0.099981 -0.368337 -9.925769 26.417913 -18.581068 -8.789374 -7.125000 0.000000 0.000000 -1.101238 9.870591 0.896519 -13.099066 -6.484890 1.369555 101.657330 -21.536309 -63.042659 -3.442127 9.659543 0.079061 -1.440798 0.625027 64.180731 -17.064217 -34.223018 8.893998 7.125000 0.000000 0.000000 20.547613 -63.260716 -9.305402
0.232906 17.126984 -27.122282 -1.147349 8.304887 19.628170 -2.152157 -1.678552 -0.436099 -12.809236 -2.694961 -6.840640 3.119764 13.003492 39.088817 2.125696 -11.575195 27.999677 0.000708 -0.152713 -0.419587 -0.795149 1.837925 -3.837302 15.799641 10.657935 -47.125455 -1.591730 -12.727795 32.670499 -0.360334 1.745749 1.589439 -1.021149 6.416746 -18.002741 5.096385 -1.987622 -8.342453 2.306523 -3.790714 -10.024148 -1.161074 -1.717186 -0.367699 -1.190167 -1.771121 -8.823658 2.103971 -2.312435 11.390001 -0.786342 -0.964559 3.770885 13.012908 7.225433 -0.644194 -95.385293 -3.286803 34.006909 35.894109 -51.047216 -16.370177 0.109733 -0.356981 -10.246275 26.469086 -18.291987 -8.677124 -7.125000 0.000000 0.000000 -1.045853 10.166148 0.845167 -13.104622 -6.479055 1.358196 101.615246 -21.266829 -61.994783 -3.448089 9.756502 0.074857 -1.467472 0.595107 63.189556 -17.187779 -34.417886 9.006197 7.125000 0.000000 0.000000 20.583499 -63.459642 -9.418162
